<?xml version="1.0" encoding="UTF-8"?>
<!--
Safari pinned-tab mask icon (monochrome).
Use with: <link rel="mask-icon" href="assets/brand/favicons/safari-pinned-tab.svg" color="#0d6efd">
Note: Safari uses the SVG as a mask; shapes should be solid (no strokes required).
-->
<svg xmlns="http://www.w3.org/2000/svg" viewBox="0 0 512 512" role="img" aria-label="Einstein outline icon">
  <title>Einstein outline icon</title>

  <!-- Hair silhouette -->
  <path d="M86 205c-34-7-57-33-56-67 2-54 52-86 96-67 5-20 28-39 55-39 12 0 24 3 34 9 15-32 48-52 85-52 37 0 70 20 85 52 10-6 22-9 34-9 27 0 50 19 55 39 44-19 94 13 96 67 1 34-22 60-56 67-6 1-8 8-3 12 15 12 26 33 22 58-6 39-47 63-84 47-11-5-20 7-14 17 9 16 10 35 2 52-15 32-60 43-90 20-9-7-21 1-19 12 2 25-10 47-32 60-30 17-72 4-88-27-3-6-12-6-15 0-16 31-58 44-88 27-22-13-34-35-32-60 2-11-10-19-19-12-30 23-75 12-90-20-8-17-7-36 2-52 6-10-3-22-14-17-37 16-78-8-84-47-4-25 7-46 22-58 5-4 3-11-3-12z"/>

  <!-- Face shape -->
  <path d="M256 120c-86 0-156 70-156 156v54c0 82 62 150 142 159v12c0 6 5 11 11 11h6c6 0 11-5 11-11v-12c80-9 142-77 142-159v-54c0-86-70-156-156-156z"/>

  <!-- Eyes -->
  <path d="M170 286c0-20 16-36 36-36s36 16 36 36-16 36-36 36-36-16-36-36z"/>
  <path d="M270 286c0-20 16-36 36-36s36 16 36 36-16 36-36 36-36-16-36-36z"/>

  <!-- Mustache -->
  <path d="M128 360c0-12 10-22 22-22h10c20 0 39 7 54 20 12 10 27 15 42 15s30-5 42-15c15-13 34-20 54-20h10c12 0 22 10 22 22 0 26-25 50-60 50-23 0-44-7-68-21-3-2-7-2-10 0-24 14-45 21-68 21-35 0-60-24-60-50z"/>

  <!-- Collar / shoulders -->
  <path d="M70 512c12-86 86-150 186-150h0c100 0 174 64 186 150H70z"/>
</svg>
